<svg width="60" height="60" viewBox="0 0 60 60" fill="none" xmlns="http://www.w3.org/2000/svg">
<path d="M42.8816 37.7358H40.1715L39.211 36.8096C42.5729 32.8988 44.5969 27.8216 44.5969 22.2985C44.5969 9.98285 34.6141 0 22.2985 0C9.98285 0 0 9.98285 0 22.2985C0 34.6141 9.98285 44.5969 22.2985 44.5969C27.8216 44.5969 32.8988 42.5729 36.8096 39.211L37.7358 40.1715V42.8816L54.8885 60L60 54.8885L42.8816 37.7358ZM22.2985 37.7358C13.7564 37.7358 6.86106 30.8405 6.86106 22.2985C6.86106 13.7564 13.7564 6.86106 22.2985 6.86106C30.8405 6.86106 37.7358 13.7564 37.7358 22.2985C37.7358 30.8405 30.8405 37.7358 22.2985 37.7358Z" fill="white"/>
</svg>
